<svg width="60" height="60" viewBox="0 0 60 60" fill="none" xmlns="http://www.w3.org/2000/svg">
<path d="M33.7751 0C19.6512 0 8.26211 9.83333 7.55029 22.2L0.357191 30.6333C-0.541947 31.6667 0.357191 33.3333 1.93068 33.3333H7.55029V43.3333C7.55029 47.0333 10.8846 50 15.0431 50H18.7895V60H45.0144V44.3667C53.8934 40.6333 60 32.6667 60 23.3333C60 10.4667 48.3112 0 33.7751 0ZM48.9856 21.9L41.6426 23.6333L47.0374 28.4667C48.3487 29.6 48.3487 31.5333 47.0374 32.7C45.7262 33.8667 43.5533 33.8667 42.2795 32.7L36.8097 27.9L34.8991 34.4333C34.4495 36.0667 32.5763 37 30.8155 36.5667C28.9797 36.1333 27.9307 34.5 28.4178 32.9L30.4034 26.3333L23.023 28.1C21.2247 28.5333 19.3515 27.6 18.9019 25.9667C18.4149 24.4 19.4639 22.7333 21.2996 22.3333L28.6426 20.6333L23.2477 15.7667C21.9365 14.6333 21.9365 12.7333 23.2477 11.5333C24.559 10.3667 26.7319 10.3667 28.0057 11.5333L33.438 16.3333L35.3861 9.8C35.8357 8.2 37.6714 7.26667 39.3948 7.66667C41.268 8.1 42.317 9.73333 41.8674 11.3667L39.8818 17.9L47.2248 16.1333C49.0605 15.7333 50.8962 16.6667 51.3833 18.3333C51.8328 19.8667 50.7838 21.5 48.9856 21.9Z" fill="#1B0044"/>
</svg>
