<svg width="60" height="60" viewBox="0 0 60 60" fill="none" xmlns="http://www.w3.org/2000/svg">
<path d="M33.0256 5.45455C44.6545 5.45455 54.0057 14.0182 54.0057 24.5455C54.0057 32.1818 49.1203 38.7 42.017 41.7545V54.5455H21.0369V46.3636H18.0398C14.7129 46.3636 12.0455 43.9364 12.0455 40.9091V32.7273H7.54973C6.29092 32.7273 5.5716 31.3636 6.29092 30.5182L12.0455 23.6182C12.6149 13.5 21.7263 5.45455 33.0256 5.45455ZM33.0256 0C19.2686 0 7.87941 9.32727 6.23098 21.5455L1.55541 27.2727H1.46549L1.40555 27.3545C-0.242887 29.4273 -0.452688 32.1545 0.83609 34.4182C1.91507 36.3 3.83325 37.6091 6.05115 38.0182V40.9091C6.05115 45.9545 9.88751 50.2364 15.0426 51.4636V60H48.0114V45C55.5043 40.4455 60 32.8909 60 24.5455C60 10.9909 47.8915 0 33.0256 0ZM46.0033 22.6364L40.1288 24.0273L44.4447 28.0091C45.4937 28.9364 45.4937 30.5182 44.4447 31.4727C43.3957 32.4273 41.6574 32.4273 40.6384 31.4727L36.2925 27.5455L34.734 32.8909C34.3743 34.2273 32.9057 34.9636 31.527 34.6364C30.0284 34.2818 29.1892 32.9455 29.5489 31.6091L31.1374 26.2636L25.2629 27.7091C23.7943 28.0364 22.3257 27.2727 21.9361 25.9091C21.5764 24.6818 22.4156 23.3182 23.8543 22.9909L29.7287 21.5727L25.4128 17.6182C24.3638 16.6909 24.3638 15.1364 25.4128 14.1545C26.4618 13.2 28.2001 13.2 29.2192 14.1545L33.595 18.0818L35.1236 12.7364C35.4832 11.4 36.9818 10.6364 38.3905 10.9909C39.8591 11.3455 40.6983 12.6818 40.3087 13.9909L38.7202 19.3636L44.6246 17.9182C46.0632 17.5636 47.5318 18.3273 47.9214 19.6636C48.3111 20.9455 47.4719 22.3091 46.0033 22.6364Z" fill="white"/>
</svg>
